<?xml version="1.0" encoding="utf-8"?>
<!-- Generator: Adobe Illustrator 25.0.1, SVG Export Plug-In . SVG Version: 6.00 Build 0)  -->
<svg version="1.1" id="Warstwa_1" xmlns="http://www.w3.org/2000/svg" xmlns:xlink="http://www.w3.org/1999/xlink" x="0px" y="0px"
	 viewBox="0 0 800 800" style="enable-background:new 0 0 800 800;" xml:space="preserve">
<style type="text/css">
	.st0{fill:#E2E2E2;}
</style>
<g id="_x35_151e0c8492e5103c096af88a51f62ed">
	<path class="st0" d="M502.2,0.8H371.6v199.1c-19.5-5.1-35.6-6.8-56.8-6.8c-136.5,0-224.7,86.5-224.7,219.6
		c0,138.2,83.1,210.2,242.5,210.2c53.4,0,102.6-5.1,169.5-17.8L502.2,0.8L502.2,0.8z M371.6,514.4c-18.7,2.5-30.5,3.4-44.9,3.4
		c-67,0-103.4-38.1-103.4-107.7c0-71.2,38.1-111.9,104.3-111.9c16.1,0,28.8,1.7,44.1,6.8V514.4z M709.9,1.5v133.9H579.3V1.5H709.9z
		 M579.3,202.4h130.6V505c0,104.3-7.6,154.3-30.5,197.5c-21.2,41.5-49.2,67.8-106.8,96.6l-121.2-57.7
		c57.6-27.1,85.6-50.8,103.4-87.3c18.6-37.3,24.6-80.5,24.6-194.1V202.4L579.3,202.4z"/>
</g>
</svg>
