<?xml version="1.0" encoding="utf-8"?>
<!-- Generator: Adobe Illustrator 25.0.1, SVG Export Plug-In . SVG Version: 6.00 Build 0)  -->
<svg version="1.1" id="Warstwa_1" xmlns="http://www.w3.org/2000/svg" xmlns:xlink="http://www.w3.org/1999/xlink" x="0px" y="0px"
	 viewBox="0 0 800 800" style="enable-background:new 0 0 800 800;" xml:space="preserve">
<style type="text/css">
	.st0{fill-rule:evenodd;clip-rule:evenodd;fill:#E2E2E2;}
</style>
<desc>Created with Sketch.</desc>
<g id="Page-1">
	<g id="Dribbble-Light-Preview" transform="translate(-61.000000, -7639.000000)">
		<g id="icons" transform="translate(56.000000, 160.000000)">
			<path id="html-_x5B__x23_124_x5D_" class="st0" d="M622.4,7719h-0.3H277.5l8.2,80h328.5c-4.8,70.1-19.4,218.6-24.7,286.1
				L405,8137v0.2l-0.4,0.2l-184.6-65L207.3,7919h90.5l6.4,82.5l100.5,37.5h0.2l100.4-36l10.3-124H203.3c-1.5-16-20.9-224.3-24.3-240
				h451.5C628,7665.4,625.4,7692.5,622.4,7719L622.4,7719z M45,7479l65.5,725.9l294,74.1l294.8-75.6L765,7479H45z"/>
		</g>
	</g>
</g>
</svg>
