<?xml version="1.0" encoding="utf-8"?>
<!-- Generator: Adobe Illustrator 25.0.1, SVG Export Plug-In . SVG Version: 6.00 Build 0)  -->
<svg version="1.1" id="Warstwa_1" xmlns="http://www.w3.org/2000/svg" xmlns:xlink="http://www.w3.org/1999/xlink" x="0px" y="0px"
	 viewBox="0 0 800 800" style="enable-background:new 0 0 800 800;" xml:space="preserve">
<style type="text/css">
	.st0{fill:#E2E2E2;}
</style>
<g id="_x35_151e0c8492e5103c096af88a51e39be">
	<path class="st0" d="M268.5,319.3c-17.4-19.9-45.1-29.9-83-29.9H59.3L0.8,590.6h65.6l15.6-80.1h56.2c24.8,0,45.2-2.6,61.2-7.8
		c16-5.2,30.6-13.9,43.7-26.2c11-10.1,19.9-21.2,26.7-33.4c6.8-12.2,11.6-25.6,14.5-40.3C291.1,367.1,285.9,339.3,268.5,319.3z
		 M216.4,398.2c-4.5,23.3-13.3,39.9-26.2,49.9c-13,10-32.7,15-59.1,15H91.2l24.5-126h45c24.9,0,41.5,4.6,49.8,13.8
		C218.8,360,220.7,375.8,216.4,398.2z M527.9,370.4l-27.2,140.1h-66.1l25.9-133.2c2.9-15.2,1.9-25.5-3.3-31
		c-5.1-5.5-16-8.3-32.7-8.3h-52l-33.5,172.5h-65.1l58.5-301.2h65.1l-15.6,80.1h58c36.5,0,61.6,6.4,75.5,19.1
		C529.2,321.3,533.4,341.9,527.9,370.4z M780.6,319.3c-17.4-19.9-45.1-29.9-83-29.9H571.4l-58.5,301.2h65.6l15.6-80.1h56.2
		c24.8,0,45.2-2.6,61.2-7.8c16-5.2,30.6-13.9,43.7-26.2c11-10.1,19.9-21.2,26.7-33.4c6.8-12.2,11.6-25.6,14.5-40.3
		C803.2,367.1,798,339.3,780.6,319.3z M728.4,398.2c-4.5,23.3-13.3,39.9-26.2,49.9c-12.9,10-32.6,15-59.1,15h-39.9l24.5-126h44.9
		c24.9,0,41.5,4.6,49.8,13.8C730.8,360,732.8,375.8,728.4,398.2z"/>
</g>
</svg>
