<?xml version="1.0" encoding="utf-8"?>
<!-- Generator: Adobe Illustrator 25.0.1, SVG Export Plug-In . SVG Version: 6.00 Build 0)  -->
<svg version="1.1" id="icon" xmlns="http://www.w3.org/2000/svg" xmlns:xlink="http://www.w3.org/1999/xlink" x="0px" y="0px"
	 viewBox="0 0 800 800" style="enable-background:new 0 0 800 800;" xml:space="preserve">
<style type="text/css">
	.st0{fill:#E2E2E2;}
	.st1{fill:none;}
</style>
<polygon class="st0" points="600,525 600,225 550,225 550,575 750,575 750,525 "/>
<path class="st0" d="M450,225H350c-27.6,0-50,22.4-50,50v250c0,27.6,22.4,50,50,50h25v50c0,27.6,22.4,50,50,50h50v-50h-50v-50h25
	c27.6,0,50-22.4,50-50V275C500,247.4,477.6,225,450,225z M350,525V275h100v250H350z"/>
<path class="st0" d="M200,575H50v-50h150V425H100c-27.6,0-50-22.4-50-50V275c0-27.6,22.4-50,50-50h150v50H100v100h100
	c27.6,0,50,22.4,50,50v100C250,552.6,227.6,575,200,575z"/>
<rect id="_Transparent_Rectangle_" class="st1" width="800" height="800"/>
</svg>
