<?xml version="1.0" encoding="utf-8"?>
<!-- Generator: Adobe Illustrator 25.0.1, SVG Export Plug-In . SVG Version: 6.00 Build 0)  -->
<svg version="1.1" id="Warstwa_1" xmlns="http://www.w3.org/2000/svg" xmlns:xlink="http://www.w3.org/1999/xlink" x="0px" y="0px"
	 viewBox="0 0 800 800" style="enable-background:new 0 0 800 800;" xml:space="preserve">
<style type="text/css">
	.st0{fill-rule:evenodd;clip-rule:evenodd;fill:#E2E2E2;}
</style>
<g>
	<path class="st0" d="M725.4,160.9H74.2C33,160.9-0.3,194.6,0,235.5v248.6c0,41.2,33.4,74.6,74.6,74.6H383l141,78.5l-32.1-78.5
		h233.5c41.2,0,74.6-33.4,74.6-74.6V235.5C800,194.3,766.6,160.9,725.4,160.9z M60.5,218.5c-9.2,0.7-16,3.9-20.6,10.1
		c-4.6,5.9-6.2,13.4-5.2,21.9C54,373.2,72,455.9,88.6,498.8c6.5,15.7,14.1,23.2,22.9,22.6c13.7-1,30.1-20,49.4-56.9
		c10.1-20.9,25.8-52.3,47.1-94.2c17.7,61.8,41.9,108.3,72.3,139.3c8.5,8.8,17.3,12.8,25.8,12.1c7.5-0.7,13.4-4.6,17.3-11.8
		c3.3-6.2,4.6-13.4,3.9-21.6c-2-29.8,1-71.3,9.2-124.6c8.5-54.9,19-94.5,31.7-118.1c2.6-4.9,3.6-9.8,3.3-15.7
		c-0.7-7.5-3.9-13.7-10.1-18.6c-6.2-4.9-13.1-7.2-20.6-6.5c-9.5,0.7-16.7,5.2-21.6,14.4c-20.3,37-34.7,96.8-43.2,179.9
		c-12.4-31.4-22.9-68.4-31.1-111.9c-3.6-19.3-12.4-28.5-26.8-27.5c-9.8,0.7-18,7.2-24.5,19.6L122,415.7
		C110.2,368.3,99.1,310.4,89,242C86.7,225,77.2,217.2,60.5,218.5z M690.8,242c23.2,4.9,40.6,17.3,52.3,37.9
		c10.5,17.7,15.7,38.9,15.7,64.4c0,33.7-8.5,64.4-25.5,92.6c-19.6,32.7-45.1,49.1-76.9,49.1c-5.6,0-11.4-0.7-17.7-2
		c-23.2-4.9-40.6-17.3-52.3-37.9c-10.5-18-15.7-39.6-15.7-64.8c0-33.7,8.5-64.4,25.5-92.2c20-32.7,45.5-49.1,76.9-49.1
		C678.7,240.1,684.5,240.7,690.8,242z M677,419c12.1-10.8,20.3-26.8,24.9-48.4c1.3-7.5,2.3-15.7,2.3-24.2c0-9.5-2-19.6-5.9-29.8
		c-4.9-12.8-11.4-19.6-19.3-21.3c-11.8-2.3-23.2,4.3-34,20.3c-8.8,12.4-14.4,25.5-17.3,38.9c-1.6,7.5-2.3,15.7-2.3,23.9
		c0,9.5,2,19.6,5.9,29.8c4.9,12.8,11.4,19.6,19.3,21.3C658.7,431.1,667.5,427.5,677,419z M538,280c-11.8-20.6-29.4-33-52.3-37.9
		c-6.2-1.3-12.1-2-17.7-2c-31.4,0-56.9,16.4-76.9,49.1c-17,27.8-25.5,58.5-25.5,92.2c0,25.2,5.2,46.8,15.7,64.8
		c11.8,20.6,29.1,33,52.3,37.9c6.2,1.3,12.1,2,17.7,2c31.7,0,57.2-16.4,76.9-49.1c17-28.1,25.5-58.9,25.5-92.6
		C553.7,318.9,548.5,297.7,538,280z M496.8,370.6c-4.6,21.6-12.8,37.6-24.9,48.4c-9.5,8.5-18.3,12.1-26.5,10.5
		c-7.9-1.6-14.4-8.5-19.3-21.3c-3.9-10.1-5.9-20.3-5.9-29.8c0-8.2,0.7-16.4,2.3-23.9c2.9-13.4,8.5-26.5,17.3-38.9
		c10.8-16,22.2-22.6,34-20.3c7.9,1.6,14.4,8.5,19.3,21.3c3.9,10.1,5.9,20.3,5.9,29.8C499.1,354.9,498.4,363.1,496.8,370.6z"/>
</g>
</svg>
