<?xml version="1.0" encoding="utf-8"?>
<!-- Generator: Adobe Illustrator 25.0.1, SVG Export Plug-In . SVG Version: 6.00 Build 0)  -->
<svg version="1.1" id="Warstwa_1" xmlns="http://www.w3.org/2000/svg" xmlns:xlink="http://www.w3.org/1999/xlink" x="0px" y="0px"
	 viewBox="0 0 800 800" style="enable-background:new 0 0 800 800;" xml:space="preserve">
<style type="text/css">
	.st0{fill:#E2E2E2;}
</style>
<path class="st0" d="M593.8,750.1c-3,1.6-2.8,2.2,0.2,0.7c0.9-0.4,1.7-0.9,2.3-1.6C596.3,748.7,596.2,748.7,593.8,750.1L593.8,750.1
	z M599.7,746.9c-1.4,1.1-1.4,1.2,0.3,0.3c0.9-0.5,1.7-1,1.7-1.2C601.7,745.4,601.3,745.6,599.7,746.9z M603.6,744.6
	c-1.4,1.1-1.4,1.2,0.3,0.3c0.9-0.5,1.7-1,1.7-1.2C605.6,743.1,605.2,743.2,603.6,744.6z M607.5,742.2c-1.4,1.1-1.4,1.2,0.3,0.3
	c0.9-0.5,1.7-1,1.7-1.2C609.5,740.7,609.1,740.9,607.5,742.2z M612.9,738.7c-2.7,1.7-3.6,2.9-1.2,1.6c1.7-1,4.5-3.1,4.1-3.2
	C614.8,737.5,613.8,738.1,612.9,738.7z M373.8,0.2c-1.7,0.2-7.2,0.7-12.1,1.1c-113.6,10.2-220,71.5-287.4,165.8
	C37,218.8,12.8,278.7,3.6,341.8c-3.2,22-3.6,28.5-3.6,58.3c0,29.8,0.4,36.3,3.6,58.3c21.7,150.2,128.6,276.4,273.6,323.2
	c26,8.4,53.3,14.1,84.4,17.5c12.1,1.3,64.5,1.3,76.6,0c53.7-5.9,99.2-19.2,144.1-42.1c6.9-3.5,8.2-4.5,7.3-5.2
	c-21.9-29-43.6-58.1-65.1-87.3l-64-86.4l-80.1-118.6c-26.6-39.7-53.5-79.2-80.7-118.5c-0.3-0.1-0.6,52.6-0.8,117
	c-0.2,112.7-0.3,117.2-1.7,119.9c-1.4,3.1-3.8,5.6-6.9,7.1c-2.5,1.3-4.7,1.5-16.5,1.5h-13.5l-3.6-2.3c-2.2-1.4-4-3.4-5.2-5.7
	l-1.6-3.5L250,418l0.2-156.8l2.4-3c1.6-1.9,3.6-3.5,5.8-4.8c3.2-1.6,4.5-1.7,18-1.7c16,0,18.6,0.6,22.8,5.2
	c32.4,48.3,64.6,96.7,96.5,145.4c51.9,78.7,122.9,186.2,157.8,239l63.3,95.9l3.2-2.1c30.5-20.3,58.1-44.5,82.2-72.1
	c50.4-57.7,83.1-128.7,94.1-204.5c3.2-22,3.6-28.5,3.6-58.3c0-29.8-0.4-36.3-3.6-58.3C774.7,191.7,667.8,65.5,522.8,18.7
	c-27.1-8.6-55-14.5-83.3-17.4C432,0.5,380.3-0.3,373.8,0.2L373.8,0.2z M537.5,242.1c3.8,1.9,6.6,5.2,7.9,9.2
	c0.6,2,0.8,45.5,0.6,143.5l-0.2,140.6l-24.8-38l-24.9-38V357.2c0-66.1,0.3-103.2,0.8-105c1.1-4.2,3.9-7.8,7.7-9.9
	c3.2-1.6,4.4-1.8,16.7-1.8C532.9,240.6,534.9,240.7,537.5,242.1L537.5,242.1z"/>
</svg>
