<?xml version="1.0" encoding="utf-8"?>
<!-- Generator: Adobe Illustrator 25.0.1, SVG Export Plug-In . SVG Version: 6.00 Build 0)  -->
<svg version="1.1" id="Warstwa_1" xmlns="http://www.w3.org/2000/svg" xmlns:xlink="http://www.w3.org/1999/xlink" x="0px" y="0px"
	 viewBox="0 0 800 800" style="enable-background:new 0 0 800 800;" xml:space="preserve">
<style type="text/css">
	.st0{fill:#E2E2E2;}
</style>
<path class="st0" d="M225,342.5c23.3-93.3,81.7-140,175-140c140,0,157.5,105,227.5,122.5c46.7,11.7,87.5-5.8,122.5-52.5
	c-23.3,93.3-81.7,140-175,140c-140,0-157.5-105-227.5-122.5C300.8,278.3,260,295.8,225,342.5z M50,552.5c23.3-93.3,81.7-140,175-140
	c140,0,157.5,105,227.5,122.5c46.7,11.7,87.5-5.8,122.5-52.5c-23.3,93.3-81.7,140-175,140c-140,0-157.5-105-227.5-122.5
	C125.8,488.3,85,505.8,50,552.5z"/>
</svg>
