<?xml version="1.0" encoding="utf-8"?>
<!-- Generator: Adobe Illustrator 25.0.1, SVG Export Plug-In . SVG Version: 6.00 Build 0)  -->
<svg version="1.1" id="Warstwa_1" xmlns="http://www.w3.org/2000/svg" xmlns:xlink="http://www.w3.org/1999/xlink" x="0px" y="0px"
	 viewBox="0 0 800 800" style="enable-background:new 0 0 800 800;" xml:space="preserve">
<style type="text/css">
	.st0{fill-rule:evenodd;clip-rule:evenodd;fill:#E2E2E2;}
</style>
<desc>Created with Sketch.</desc>
<g id="Page-1">
	<g id="Dribbble-Light-Preview" transform="translate(-260.000000, -7559.000000)">
		<g id="icons" transform="translate(56.000000, 160.000000)">
			<path id="wordpress-_x5B__x23_139_x5D_" class="st0" d="M955,7607.1c1.7,12.8,2.7,26.4,2.7,41.1c0,70.3-6.5,74.3-152.6,496.6
				C924,8075.4,1004,7946.5,1004,7799C1004,7729.4,986.2,7664,955,7607.1L955,7607.1z M611,7834l-120,348.7
				c81,23.8,166.8,21.4,245.8-6.3c-1.1-1.7-2-3.6-2.8-5.5L611,7834z M874,7778.8c0-49.5-17.8-83.7-33-110.3
				c-20.2-32.9-39.3-60.8-39.3-93.8c0-36.8,27.9-71,67.2-71c1.8,0,3.4,0.2,5.2,0.3c-71.2-65.2-166-105-270.1-105
				c-139.7,0-262.7,71.7-334.2,180.3c25.5,0.8,59.7,1.1,132.4-4.6c21.6-1.3,24.1,30.4,2.6,32.9c0,0-21.7,2.6-45.8,3.8l145.7,433.3
				l87.5-262.6l-62.3-170.8c-21.5-1.2-41.9-3.8-41.9-3.8c-21.6-1.3-19-34.2,2.5-32.9c82.7,6.3,125,6.8,212,0
				c21.6-1.3,24.1,30.4,2.6,32.9c0,0-21.7,2.6-45.8,3.8l144.6,430C860.8,7850.7,874,7818.8,874,7778.8L874,7778.8z M204,7799
				c0,158.3,92,295.2,225.4,360l-190.8-522.8C216.4,7685.9,204,7741,204,7799L204,7799z"/>
		</g>
	</g>
</g>
</svg>
