<svg id="Warstwa_1" data-name="Warstwa 1" xmlns="http://www.w3.org/2000/svg" viewBox="0 0 49.17 34.27"><defs><style>.cls-1{fill:none;stroke:#1d1d1b;stroke-miterlimit:10;stroke-width:2px;}.cls-2{fill:#1d1d1b;}</style></defs><path class="cls-1" d="M38.75,18.13v-.05a6.16,6.16,0,0,0-9.13-5.4,10.71,10.71,0,0,0-20,5.4c0,.1,0,.19,0,.29A10.82,10.82,0,0,0,1.34,28.86h0A10.82,10.82,0,0,0,12.12,39.65H37.73A10.82,10.82,0,0,0,48.51,28.86h0A10.82,10.82,0,0,0,38.75,18.13Z" transform="translate(-0.34 -6.37)"/><path class="cls-2" d="M13.69,32.46V21.87h4.2a4.82,4.82,0,0,1,1.95.35,2.67,2.67,0,0,1,1.16,1,2.54,2.54,0,0,1,.39,1.4,2.26,2.26,0,0,1-.25,1.1,2.16,2.16,0,0,1-.68.76,3.09,3.09,0,0,1-1,.42V27a2.28,2.28,0,0,1,1.13.33,2.5,2.5,0,0,1,.86.88,2.65,2.65,0,0,1,.33,1.35,2.68,2.68,0,0,1-1.63,2.54,4.77,4.77,0,0,1-2,.38Zm2.17-6.14h1.71a1.84,1.84,0,0,0,.83-.17,1.36,1.36,0,0,0,.58-.47,1.29,1.29,0,0,0,.21-.74,1.19,1.19,0,0,0-.41-.94,1.71,1.71,0,0,0-1.17-.36H15.86Zm0,4.36h1.88a2.2,2.2,0,0,0,1.39-.37,1.23,1.23,0,0,0,.44-1,1.43,1.43,0,0,0-.22-.79,1.46,1.46,0,0,0-.61-.54,2.15,2.15,0,0,0-.95-.19H15.86Z" transform="translate(-0.34 -6.37)"/><path class="cls-2" d="M25.55,32.46,22.71,21.87h2.37l1.23,5.21c.1.44.19.9.27,1.4s.17,1,.25,1.49.15,1,.23,1.44h-.38c.08-.46.17-.94.25-1.44s.17-1,.27-1.49.18-1,.29-1.4l1.3-5.21H31l1.29,5.21c.1.44.2.9.29,1.4L32.89,30c.09.5.18,1,.26,1.44h-.4q.12-.69.24-1.44c.08-.5.16-1,.25-1.49s.18-1,.27-1.4l1.23-5.21h2.38L34.27,32.46H31.79l-1.4-5.41a19.41,19.41,0,0,1-.39-2c-.11-.7-.23-1.42-.36-2.17h.54Q30,24,29.82,25.05a15.73,15.73,0,0,1-.39,2L28,32.46Z" transform="translate(-0.34 -6.37)"/></svg>