<svg xmlns="http://www.w3.org/2000/svg" viewBox="0 0 276.79 38.76"><defs><style>.cls-1{fill:none;stroke:#fff;stroke-miterlimit:10;stroke-width:2px;}.cls-2{fill:#fff;}</style></defs><g id="Warstwa_2" data-name="Warstwa 2"><g id="Warstwa_2-2" data-name="Warstwa 2"><path class="cls-1" d="M43.61,13.26V13.2a7,7,0,0,0-7-7,6.88,6.88,0,0,0-3.38.87A12.2,12.2,0,0,0,10.48,13.2c0,.11,0,.22,0,.33A12.32,12.32,0,0,0,1,25.48H1A12.31,12.31,0,0,0,13.28,37.76H42.45A12.31,12.31,0,0,0,54.73,25.48h0A12.31,12.31,0,0,0,43.61,13.26Z"/><path class="cls-2" d="M66.84,29.66V13.81H72.9a6.65,6.65,0,0,1,2.85.54,3.81,3.81,0,0,1,1.7,1.47,3.89,3.89,0,0,1,.57,2.1,3.54,3.54,0,0,1-.37,1.66,3.23,3.23,0,0,1-1,1.11,4.1,4.1,0,0,1-1.4.6v.16a3.5,3.5,0,0,1,1.62.51,3.74,3.74,0,0,1,1.27,1.32,4.05,4.05,0,0,1,.49,2.06A4.13,4.13,0,0,1,78,27.55a4.07,4.07,0,0,1-1.79,1.54,7,7,0,0,1-3,.57Zm2.84-9.1h2.86a3.11,3.11,0,0,0,1.35-.28,2.19,2.19,0,0,0,.94-.78,2.14,2.14,0,0,0,.35-1.22,2,2,0,0,0-.65-1.52,2.8,2.8,0,0,0-1.93-.59H69.68Zm0,6.72h3.1a3.45,3.45,0,0,0,2.27-.6,2,2,0,0,0,.7-1.56,2.44,2.44,0,0,0-.35-1.28,2.47,2.47,0,0,0-1-.9,3.32,3.32,0,0,0-1.53-.33h-3.2Z"/><path class="cls-2" d="M82.45,16.08a1.59,1.59,0,0,1-1.13-.45,1.38,1.38,0,0,1-.47-1.06,1.42,1.42,0,0,1,.47-1.08,1.62,1.62,0,0,1,1.13-.44,1.65,1.65,0,0,1,1.15.44,1.43,1.43,0,0,1,.47,1.07,1.42,1.42,0,0,1-.47,1.07A1.62,1.62,0,0,1,82.45,16.08ZM81.07,29.66V17.76h2.77v11.9Z"/><path class="cls-2" d="M86.6,29.66V27.89l6.14-7.72v-.1H86.79V17.76h9.34v1.92l-5.85,7.57v.1h6.06v2.31Z"/><path class="cls-2" d="M101.87,22.69v7H99.1V17.76h2.62l0,2.94h-.22A4.71,4.71,0,0,1,103,18.38a3.77,3.77,0,0,1,2.42-.77,4.32,4.32,0,0,1,2.14.52A3.57,3.57,0,0,1,109,19.66a5.26,5.26,0,0,1,.5,2.43v7.57h-2.76V22.52a2.67,2.67,0,0,0-.62-1.87,2.16,2.16,0,0,0-1.7-.69,2.67,2.67,0,0,0-1.31.32,2.37,2.37,0,0,0-.9.93A3.08,3.08,0,0,0,101.87,22.69Z"/><path class="cls-2" d="M117.69,29.9a6,6,0,0,1-3.09-.76,5,5,0,0,1-2-2.12,7,7,0,0,1-.7-3.24,7.13,7.13,0,0,1,.69-3.22,5.14,5.14,0,0,1,1.94-2.16,5.43,5.43,0,0,1,3-.79,6.16,6.16,0,0,1,2.07.35,4.92,4.92,0,0,1,1.75,1.09,5,5,0,0,1,1.19,1.87,7.48,7.48,0,0,1,.43,2.69v.88h-9.72V22.6h8.35l-1.3.56A4.54,4.54,0,0,0,120,21.4a2.51,2.51,0,0,0-.92-1.19,2.62,2.62,0,0,0-1.52-.43A2.64,2.64,0,0,0,115,21.36a3.82,3.82,0,0,0-.34,1.6v1.3a4.25,4.25,0,0,0,.39,1.91,2.7,2.7,0,0,0,1.07,1.17,3.49,3.49,0,0,0,2.71.21,2.36,2.36,0,0,0,.86-.52,2.17,2.17,0,0,0,.54-.84l2.54.52a4,4,0,0,1-1,1.67,4.75,4.75,0,0,1-1.73,1.12A6.45,6.45,0,0,1,117.69,29.9Z"/><path class="cls-2" d="M129.81,29.9a6.94,6.94,0,0,1-2.42-.39,4.42,4.42,0,0,1-1.73-1.15,3.82,3.82,0,0,1-.88-1.83l2.59-.49a2.22,2.22,0,0,0,.86,1.31,2.81,2.81,0,0,0,1.64.43,2.78,2.78,0,0,0,1.62-.41,1.19,1.19,0,0,0,.6-1,1.09,1.09,0,0,0-.39-.85,2.9,2.9,0,0,0-1.22-.51l-2-.44a5,5,0,0,1-2.51-1.19,2.91,2.91,0,0,1-.83-2.14,3,3,0,0,1,.61-1.91,3.89,3.89,0,0,1,1.68-1.26,6.5,6.5,0,0,1,2.51-.45,6.22,6.22,0,0,1,2.32.39,3.92,3.92,0,0,1,1.58,1.07,3.7,3.7,0,0,1,.83,1.61l-2.47.49a2.21,2.21,0,0,0-.73-1.06,2.29,2.29,0,0,0-1.5-.43,2.6,2.6,0,0,0-1.47.39,1.13,1.13,0,0,0-.59,1,1.09,1.09,0,0,0,.39.86,2.84,2.84,0,0,0,1.3.53l2,.43A5.07,5.07,0,0,1,134.1,24a2.71,2.71,0,0,1,.82,2.05,3.25,3.25,0,0,1-.65,2,4.31,4.31,0,0,1-1.8,1.34A6.9,6.9,0,0,1,129.81,29.9Z"/><path class="cls-2" d="M139.89,29.66l-4.28-15.85h3l2.07,8.43c.14.61.27,1.25.4,1.93l.36,2c.12.68.23,1.35.33,2h-.45c.12-.65.24-1.32.36-2s.25-1.36.38-2,.28-1.32.43-1.93l2.14-8.43h3l2.13,8.43c.16.61.3,1.25.43,1.93s.26,1.35.39,2,.25,1.35.37,2h-.49c.12-.65.23-1.32.35-2s.24-1.36.37-2,.26-1.32.4-1.93l2.06-8.43h3.06l-4.29,15.85h-3.25l-2.31-8.76c-.21-.81-.4-1.7-.56-2.66s-.33-2-.52-3h.69c-.2,1-.37,2-.52,3a26.57,26.57,0,0,1-.56,2.74l-2.31,8.76Z"/><path class="cls-2" d="M160.15,16.08a1.57,1.57,0,0,1-1.13-.45,1.38,1.38,0,0,1-.47-1.06,1.42,1.42,0,0,1,.47-1.08,1.6,1.6,0,0,1,1.13-.44,1.65,1.65,0,0,1,1.15.44,1.43,1.43,0,0,1,.47,1.07,1.42,1.42,0,0,1-.47,1.07A1.62,1.62,0,0,1,160.15,16.08Zm-1.38,13.58V17.76h2.76v11.9Z"/><path class="cls-2" d="M164.3,29.66V27.89l6.14-7.72v-.1h-5.95V17.76h9.34v1.92L168,27.25v.1H174v2.31Z"/><path class="cls-2" d="M176.68,33.9l.65-2.16.33.09a3.19,3.19,0,0,0,1.12.09,1.34,1.34,0,0,0,.82-.43,2.19,2.19,0,0,0,.47-1l.17-.75-4.49-11.94h2.95l2.17,6.47a20.07,20.07,0,0,1,.63,2.29c.16.76.35,1.53.54,2.33h-.72c.19-.8.38-1.58.58-2.34s.41-1.52.67-2.28l2.24-6.47h2.93l-5.11,13.43a6,6,0,0,1-.9,1.62,3.71,3.71,0,0,1-1.33,1,4.66,4.66,0,0,1-1.87.35,6,6,0,0,1-1.08-.09A3.25,3.25,0,0,1,176.68,33.9Z"/><path class="cls-2" d="M195.44,17.76v2.17h-6.76V17.76Zm-5.07-2.83h2.77V26.3a1.38,1.38,0,0,0,.28,1,1.16,1.16,0,0,0,.9.3,3.92,3.92,0,0,0,.51,0l.5-.09.44,2.14a6,6,0,0,1-.94.2,7.31,7.31,0,0,1-.91.06,3.7,3.7,0,0,1-2.63-.86,3.13,3.13,0,0,1-.92-2.42Z"/><path class="cls-2" d="M202.57,29.9a5.78,5.78,0,0,1-3-.77,5.25,5.25,0,0,1-2-2.15,7.09,7.09,0,0,1-.7-3.21,7.22,7.22,0,0,1,.7-3.24,5.19,5.19,0,0,1,2-2.15,6.31,6.31,0,0,1,6,0,5.13,5.13,0,0,1,2,2.15,7.22,7.22,0,0,1,.7,3.24,7.09,7.09,0,0,1-.7,3.21,5.19,5.19,0,0,1-2,2.15A5.78,5.78,0,0,1,202.57,29.9Zm0-2.24a2.49,2.49,0,0,0,1.62-.53,2.94,2.94,0,0,0,.95-1.4,5.81,5.81,0,0,0,.32-2,5.87,5.87,0,0,0-.32-2,3,3,0,0,0-.95-1.4,2.48,2.48,0,0,0-1.62-.52,2.44,2.44,0,0,0-1.6.52,3.13,3.13,0,0,0-.94,1.4,6.25,6.25,0,0,0,0,3.95,3.08,3.08,0,0,0,.94,1.4A2.45,2.45,0,0,0,202.57,27.66Z"/><path class="cls-2" d="M212.83,29.66l-3.54-11.9h2.91l1.17,4.66c.18.77.37,1.61.59,2.52s.41,1.94.6,3.06h-.35c.2-1.1.4-2.1.62-3s.43-1.77.63-2.56l1.2-4.66h2.64l1.17,4.66c.19.77.39,1.62.61,2.54s.42,1.93.62,3h-.35c.19-1.1.39-2.11.59-3s.4-1.76.59-2.55l1.17-4.66h2.94l-3.55,11.9h-2.8l-1.4-4.86c-.14-.48-.28-1-.41-1.57s-.27-1.13-.39-1.72-.26-1.14-.39-1.68h.51q-.18.81-.39,1.68c-.13.59-.26,1.16-.39,1.73s-.27,1.09-.41,1.56l-1.39,4.86Z"/><path class="cls-2" d="M228.57,29.66V13.81h2.77V29.66Zm2.54-3.75V22.56h.43l4.29-4.8h3.24l-5.25,5.86h-.58ZM236,29.66l-3.89-5.42,1.87-2,5.34,7.38Z"/><path class="cls-2" d="M244.3,29.9a5,5,0,0,1-2-.41,3.22,3.22,0,0,1-1.42-1.21,3.47,3.47,0,0,1-.52-2,3.2,3.2,0,0,1,.38-1.67,2.88,2.88,0,0,1,1-1.06,5.07,5.07,0,0,1,1.45-.59,11.33,11.33,0,0,1,1.68-.29l1.68-.2a2.44,2.44,0,0,0,.95-.28.67.67,0,0,0,.31-.6v-.05a1.91,1.91,0,0,0-.24-1,1.46,1.46,0,0,0-.69-.63,2.65,2.65,0,0,0-1.15-.22,3.14,3.14,0,0,0-1.2.21,2.48,2.48,0,0,0-.82.56,2.22,2.22,0,0,0-.47.73l-2.56-.52A4.09,4.09,0,0,1,241.74,19a4.8,4.8,0,0,1,1.75-1,7.16,7.16,0,0,1,2.21-.34,7.66,7.66,0,0,1,1.7.2,4.66,4.66,0,0,1,1.57.67,3.53,3.53,0,0,1,1.14,1.25,4,4,0,0,1,.44,2v8H247.9V28h-.1a3.69,3.69,0,0,1-.73.93,3.52,3.52,0,0,1-1.15.69A4.66,4.66,0,0,1,244.3,29.9Zm.71-2a3.11,3.11,0,0,0,1.48-.34,2.56,2.56,0,0,0,1-.9,2.28,2.28,0,0,0,.35-1.22V24a1.81,1.81,0,0,1-.47.2c-.21.06-.45.12-.72.17l-.79.13-.65.08a5.24,5.24,0,0,0-1.12.28,1.78,1.78,0,0,0-.78.53,1.36,1.36,0,0,0-.28.9,1.42,1.42,0,0,0,.26.86,1.61,1.61,0,0,0,.71.53A2.8,2.8,0,0,0,245,27.85Z"/><path class="cls-2" d="M255.49,29.84a1.68,1.68,0,0,1-1.21-.49,1.74,1.74,0,0,1,0-2.42,1.68,1.68,0,0,1,1.21-.49,1.7,1.7,0,0,1,1.22.49,1.74,1.74,0,0,1,0,2.42A1.7,1.7,0,0,1,255.49,29.84Z"/><path class="cls-2" d="M260.43,34.1V17.76h2.71v2h.18a5.06,5.06,0,0,1,.6-.91A3.44,3.44,0,0,1,265,18a3.67,3.67,0,0,1,1.73-.36,4.55,4.55,0,0,1,2.49.71A4.79,4.79,0,0,1,271,20.38a7.7,7.7,0,0,1,.66,3.35,7.91,7.91,0,0,1-.64,3.33,4.91,4.91,0,0,1-1.75,2.09,4.56,4.56,0,0,1-2.53.72,3.71,3.71,0,0,1-1.69-.35,3.49,3.49,0,0,1-1.09-.83,4.7,4.7,0,0,1-.61-.92h-.12V34.1ZM266,27.59a2.44,2.44,0,0,0,1.55-.5,3.14,3.14,0,0,0,1-1.39,5.8,5.8,0,0,0,.31-2,5.7,5.7,0,0,0-.31-2,3,3,0,0,0-.94-1.37,2.44,2.44,0,0,0-1.56-.49,2.49,2.49,0,0,0-1.55.48,3,3,0,0,0-.95,1.33,5.86,5.86,0,0,0-.32,2,6,6,0,0,0,.32,2,3.06,3.06,0,0,0,1,1.36A2.46,2.46,0,0,0,266,27.59Z"/><path class="cls-2" d="M276.79,13.81V29.66H274V13.81Z"/></g></g></svg>